<?xml version="1.0" encoding="UTF-8"?>
<svg xmlns="http://www.w3.org/2000/svg" xmlns:xlink="http://www.w3.org/1999/xlink" width="200pt" height="200pt" viewBox="0 0 200 200" version="1.1">
<g id="surface1">
<path style=" stroke:none;fill-rule:nonzero;fill:rgb(92.941176%,73.333333%,59.607843%);fill-opacity:1;" d="M 105.3125 158.828125 L 94.6875 158.828125 C 85.664062 158.828125 78.320312 151.523438 78.320312 142.460938 L 78.320312 118.789062 C 78.320312 109.765625 85.625 102.421875 94.6875 102.421875 L 105.3125 102.421875 C 114.335938 102.421875 121.679688 109.726562 121.679688 118.789062 L 121.679688 142.460938 C 121.679688 151.523438 114.335938 158.828125 105.3125 158.828125 Z M 105.3125 158.828125 "/>
<path style=" stroke:none;fill-rule:nonzero;fill:rgb(90.196078%,90.196078%,90.196078%);fill-opacity:1;" d="M 121.679688 142.109375 L 121.679688 142.5 C 121.679688 151.523438 114.375 158.867188 105.3125 158.867188 L 94.6875 158.867188 C 85.664062 158.867188 78.320312 151.5625 78.320312 142.5 L 78.320312 142.109375 C 44.257812 149.492188 17.734375 172.148438 10.625 199.84375 C 10.507812 200.234375 55.742188 199.84375 99.960938 199.84375 C 144.21875 199.84375 189.414062 200.234375 189.296875 199.84375 C 182.226562 172.148438 155.742188 149.453125 121.679688 142.109375 Z M 121.679688 142.109375 "/>
<path style=" stroke:none;fill-rule:nonzero;fill:rgb(95.686275%,77.254902%,63.529412%);fill-opacity:1;" d="M 162.164062 80.488281 C 164.027344 71.90625 160.515625 63.859375 154.316406 62.511719 C 148.117188 61.164062 141.582031 67.027344 139.71875 75.609375 C 137.851562 84.1875 141.363281 92.234375 147.5625 93.582031 C 153.761719 94.929688 160.296875 89.066406 162.164062 80.488281 Z M 162.164062 80.488281 "/>
<path style=" stroke:none;fill-rule:nonzero;fill:rgb(95.686275%,77.254902%,63.529412%);fill-opacity:1;" d="M 37.847656 81.515625 C 39.710938 90.09375 46.25 95.957031 52.445312 94.609375 C 58.644531 93.261719 62.15625 85.214844 60.292969 76.636719 C 58.425781 68.054688 51.890625 62.191406 45.691406 63.539062 C 39.496094 64.886719 35.984375 72.933594 37.847656 81.515625 Z M 37.847656 81.515625 "/>
<path style=" stroke:none;fill-rule:nonzero;fill:rgb(95.686275%,77.254902%,63.529412%);fill-opacity:1;" d="M 149.53125 77.03125 C 149.53125 45.1875 127.40625 19.375 100.117188 19.375 C 72.828125 19.375 50.703125 45.1875 50.703125 77.03125 C 50.703125 108.875 72.828125 134.6875 100.117188 134.6875 C 127.40625 134.6875 149.53125 108.875 149.53125 77.03125 Z M 149.53125 77.03125 "/>
<path style=" stroke:none;fill-rule:nonzero;fill:rgb(24.705882%,15.686275%,12.54902%);fill-opacity:1;" d="M 152.578125 38.125 C 152.148438 33.320312 150.742188 25.625 148.828125 21.132812 C 143.007812 7.539062 122.1875 1.679688 108.203125 0.351562 C 82.304688 -1.5625 73.242188 4.804688 70.3125 10.15625 C 70.3125 10.15625 38.203125 14.257812 44.21875 55.46875 L 51.171875 80.976562 C 51.171875 80.976562 63.710938 46.5625 80.15625 37.96875 L 76.601562 30.234375 C 77.8125 31.835938 79.0625 33.398438 80.351562 34.921875 C 81.054688 35.742188 81.796875 36.601562 82.539062 37.421875 C 86.484375 41.796875 90.9375 45.9375 96.875 47.929688 C 102.851562 49.921875 109.570312 49.453125 115.585938 47.96875 C 121.09375 46.601562 127.460938 42.03125 133.28125 42.96875 C 137.5 43.632812 140.273438 47.34375 142.03125 50.898438 C 146.757812 60.273438 148.203125 70.742188 149.609375 81.015625 C 151.71875 66.523438 153.90625 52.617188 152.578125 38.125 Z M 152.578125 38.125 "/>
<path style=" stroke:none;fill-rule:nonzero;fill:rgb(24.705882%,15.686275%,12.54902%);fill-opacity:1;" d="M 142.226562 107.265625 C 139.921875 108.789062 113.125 126.015625 105.429688 110.507812 C 105.429688 110.507812 102.382812 108.710938 100.234375 109.492188 C 98.085938 108.710938 95.039062 110.507812 95.039062 110.507812 C 86.992188 126.71875 58.085938 107.148438 58.085938 107.148438 C 58.398438 107.851562 58.75 108.554688 59.101562 109.257812 C 67.8125 124.335938 82.5 134.335938 99.179688 134.6875 C 99.570312 134.6875 99.921875 134.6875 100.234375 134.648438 C 100.46875 134.648438 100.78125 134.648438 101.09375 134.648438 C 118.515625 134.296875 133.671875 123.4375 142.226562 107.265625 Z M 142.226562 107.265625 "/>
<path style=" stroke:none;fill-rule:nonzero;fill:rgb(92.941176%,11.764706%,47.45098%);fill-opacity:1;" d="M 137.65625 146.875 L 103.476562 183.242188 L 62.265625 146.914062 C 36.09375 157.03125 16.5625 176.679688 10.625 199.84375 C 10.507812 200.234375 55.742188 199.84375 99.960938 199.84375 C 144.21875 199.84375 189.414062 200.234375 189.296875 199.84375 C 183.398438 176.640625 163.828125 156.992188 137.65625 146.875 Z M 137.65625 146.875 "/>
<path style=" stroke:none;fill-rule:nonzero;fill:rgb(24.705882%,15.686275%,12.54902%);fill-opacity:1;" d="M 76.328125 103.476562 C 76.796875 102.5 77.578125 101.679688 78.476562 101.054688 C 79.375 100.390625 80.351562 99.921875 81.367188 99.492188 C 83.398438 98.671875 85.546875 98.242188 87.65625 98.007812 C 89.765625 97.773438 91.914062 97.734375 94.023438 97.8125 C 96.132812 97.929688 98.203125 98.125 100.351562 98.515625 L 99.804688 98.476562 L 100.664062 98.476562 L 100.117188 98.515625 C 102.265625 98.125 104.335938 97.890625 106.445312 97.8125 C 108.554688 97.734375 110.664062 97.773438 112.8125 98.007812 C 114.921875 98.242188 117.070312 98.671875 119.101562 99.492188 C 120.117188 99.921875 121.132812 100.390625 121.992188 101.054688 C 122.890625 101.71875 123.671875 102.539062 124.140625 103.476562 C 122.34375 102.382812 120.429688 102.148438 118.515625 102.03125 C 116.601562 101.953125 114.648438 102.03125 112.734375 102.226562 C 110.78125 102.382812 108.867188 102.65625 106.914062 102.929688 C 105 103.203125 103.007812 103.515625 101.171875 103.867188 L 100.898438 103.90625 L 99.492188 103.90625 L 99.21875 103.867188 C 97.382812 103.515625 95.390625 103.203125 93.476562 102.929688 C 91.523438 102.65625 89.609375 102.382812 87.65625 102.226562 C 85.742188 102.070312 83.789062 101.953125 81.875 102.03125 C 80.039062 102.109375 78.125 102.382812 76.328125 103.476562 Z M 76.328125 103.476562 "/>
</g>
</svg>
